<?xml version="1.0" standalone="no"?>
<!DOCTYPE svg PUBLIC "-//W3C//DTD SVG 20010904//EN"
 "http://www.w3.org/TR/2001/REC-SVG-20010904/DTD/svg10.dtd">
<svg version="1.0" xmlns="http://www.w3.org/2000/svg"
 width="1760.000000pt" height="1760.000000pt" viewBox="0 0 1760.000000 1760.000000"
 preserveAspectRatio="xMidYMid meet">
<metadata>
Created by potrace 1.14, written by Peter Selinger 2001-2017
</metadata>
<g transform="translate(0.000000,1760.000000) scale(0.100000,-0.100000)"
fill="#000000" stroke="none">
<path d="M9799 12012 c-8 -9 -19 -26 -25 -37 -13 -25 -54 -97 -82 -147 -12
-20 -31 -54 -44 -75 -13 -21 -30 -51 -38 -68 -8 -16 -17 -32 -20 -35 -3 -3
-33 -52 -65 -110 -33 -58 -64 -113 -70 -122 -5 -9 -23 -42 -40 -72 -16 -31
-33 -56 -37 -56 -4 0 -8 -6 -8 -13 0 -7 -13 -34 -30 -60 -16 -26 -26 -47 -22
-47 4 0 2 -4 -4 -8 -6 -4 -28 -38 -49 -77 -22 -38 -43 -71 -47 -73 -4 -2 -8
-8 -8 -13 0 -6 -22 -48 -50 -95 -27 -47 -50 -86 -50 -88 0 -2 -27 -50 -60
-105 -33 -56 -60 -104 -60 -108 0 -3 -6 -14 -14 -22 -8 -9 -26 -38 -41 -66
-30 -58 -40 -76 -168 -298 -53 -93 -97 -173 -97 -178 0 -5 -3 -9 -7 -9 -5 0
-21 -26 -38 -58 -16 -31 -32 -59 -35 -62 -3 -3 -11 -16 -18 -30 -6 -14 -16
-32 -22 -40 -12 -18 -225 -389 -256 -446 -19 -37 -45 -81 -81 -139 -7 -11 -24
-42 -39 -70 -14 -27 -35 -62 -45 -77 -11 -14 -19 -29 -19 -32 0 -3 -18 -35
-40 -71 -22 -36 -40 -68 -40 -70 0 -3 -20 -38 -44 -78 -24 -39 -83 -142 -131
-227 -48 -85 -91 -157 -94 -160 -3 -3 -7 -12 -9 -20 -2 -8 -9 -22 -15 -30 -7
-8 -18 -25 -24 -37 -7 -12 -74 -129 -149 -260 -135 -236 -177 -309 -198 -348
-6 -11 -16 -27 -22 -35 -6 -8 -28 -46 -49 -85 -21 -38 -49 -87 -62 -107 -12
-21 -23 -40 -23 -42 0 -3 -25 -46 -55 -96 -30 -50 -55 -95 -55 -100 0 -6 -5
-10 -12 -10 -6 0 -9 -3 -6 -6 6 -5 -88 -174 -112 -201 -5 -7 -10 -15 -10 -17
0 -3 -42 -79 -94 -168 -153 -266 -157 -272 -163 -290 -3 -10 -9 -18 -13 -18
-4 0 -11 -11 -14 -25 -4 -14 -11 -25 -16 -25 -6 0 -10 -4 -10 -10 0 -5 -80
-148 -177 -317 -97 -170 -190 -333 -207 -363 -16 -30 -32 -57 -36 -60 -4 -3
-17 -25 -29 -50 -13 -25 -34 -63 -47 -85 -13 -22 -24 -42 -24 -45 0 -4 1569
-5 1592 -1 5 1 42 62 115 191 11 19 34 58 50 86 29 49 45 77 121 214 20 36 40
67 44 68 4 2 8 8 8 12 0 5 61 116 137 247 75 131 145 254 156 273 10 19 33 60
51 90 17 30 39 69 49 85 9 17 83 146 164 288 82 141 159 278 173 305 14 26 27
49 30 52 12 11 100 170 100 180 0 5 5 10 10 10 6 0 10 4 10 9 0 5 38 76 85
157 47 81 85 151 85 156 0 4 4 8 10 8 5 0 9 3 8 8 -1 4 5 18 13 32 44 70 99
170 99 179 0 6 5 11 10 11 6 0 10 4 10 9 0 4 23 48 51 97 29 49 62 107 74 129
13 22 46 80 74 128 28 49 51 90 51 93 0 2 15 27 33 56 18 29 39 67 47 83 8 17
17 32 20 35 5 4 55 91 137 238 13 23 53 93 89 154 35 61 64 112 64 114 0 2 21
38 46 81 51 85 76 129 106 183 44 79 291 511 327 570 11 19 24 42 28 50 4 8
26 47 48 85 23 39 44 77 48 85 4 8 17 31 29 50 11 19 34 60 51 90 16 30 36 62
43 71 8 8 14 19 14 23 0 4 23 45 50 92 28 47 50 89 50 94 0 6 4 10 9 10 5 0
11 8 14 18 3 9 22 44 41 77 19 33 44 77 55 97 38 70 46 83 52 88 3 3 12 19 21
35 15 31 211 375 233 410 7 11 13 23 14 27 1 5 17 32 36 62 19 30 35 57 35 59
0 3 18 35 40 71 22 36 40 69 40 73 0 3 6 14 14 22 7 9 16 25 20 36 6 19 1 20
-172 22 -97 1 -287 4 -422 7 -135 3 -402 8 -594 11 -192 3 -353 8 -356 10 -4
3 -14 -3 -21 -13z"/>
<path d="M4666 12003 c-3 -3 -155 -7 -337 -8 -268 -2 -333 -5 -344 -16 -17
-17 -185 -309 -185 -321 0 -4 -4 -8 -9 -8 -5 0 -11 -6 -13 -12 -2 -10 -79
-146 -128 -228 -5 -8 -34 -58 -63 -110 -30 -52 -64 -111 -76 -130 -11 -19 -25
-44 -31 -55 -6 -11 -24 -42 -41 -70 -16 -27 -33 -58 -36 -67 -3 -10 -9 -18
-14 -18 -5 0 -9 -4 -9 -10 0 -8 -96 -178 -130 -230 -6 -8 -13 -22 -17 -30 -4
-8 -31 -55 -60 -104 -29 -49 -53 -91 -53 -93 0 -3 -8 -17 -19 -31 -10 -15 -29
-47 -43 -72 -38 -67 -62 -109 -98 -170 -18 -30 -38 -64 -44 -75 -16 -29 -165
-287 -176 -305 -17 -27 -168 -290 -207 -360 -14 -25 -32 -52 -39 -61 -8 -8
-14 -18 -14 -22 0 -6 -149 -267 -170 -297 -6 -8 -13 -23 -16 -32 -4 -10 -10
-18 -15 -18 -5 0 -9 -5 -9 -10 0 -8 -77 -144 -239 -420 -14 -25 -29 -52 -34
-60 -4 -8 -21 -37 -37 -65 -17 -27 -36 -61 -43 -75 -6 -14 -14 -27 -18 -30 -3
-3 -19 -30 -35 -60 -16 -30 -37 -63 -46 -74 -10 -11 -18 -28 -18 -37 0 -10 -3
-19 -8 -21 -4 -1 -54 -84 -111 -183 -58 -99 -124 -213 -148 -252 -24 -40 -43
-77 -43 -83 0 -5 -4 -10 -10 -10 -5 0 -10 -4 -10 -9 0 -7 -61 -117 -100 -181
-54 -88 -140 -241 -140 -249 0 -6 -4 -11 -9 -11 -5 0 -14 -15 -22 -32 -7 -18
-16 -35 -19 -38 -4 -3 -21 -32 -39 -65 -18 -33 -36 -64 -41 -70 -4 -5 -19 -30
-32 -55 -30 -54 -154 -269 -167 -290 -43 -68 -101 -171 -101 -180 0 -5 -4 -10
-10 -10 -5 0 -10 -4 -10 -10 0 -5 -23 -49 -52 -97 -28 -48 -51 -90 -49 -92 1
-2 -1 -7 -6 -10 -12 -8 -374 -633 -370 -638 2 -2 273 -6 603 -8 329 -3 681 -7
782 -8 101 -1 187 0 192 3 5 3 74 118 154 255 80 138 149 255 153 261 4 5 16
26 26 45 38 70 52 94 58 99 4 3 9 15 13 28 4 12 12 22 17 22 5 0 9 4 9 9 0 5
15 36 34 68 19 32 83 141 142 243 182 315 281 484 303 520 11 19 24 42 28 50
3 8 9 17 12 20 3 3 14 21 25 40 27 51 50 91 126 220 76 129 99 169 126 220 11
19 21 37 24 40 7 7 29 43 37 60 3 8 25 47 48 85 23 39 52 89 65 113 22 38 27
42 64 43 23 1 45 1 50 0 5 -1 111 -4 235 -7 124 -2 330 -7 456 -9 127 -3 292
-7 367 -8 85 -1 138 -6 137 -12 0 -5 -10 -27 -22 -47 -37 -63 -168 -290 -195
-338 -14 -25 -36 -62 -49 -82 -12 -21 -23 -40 -23 -44 0 -3 -8 -18 -18 -32
-11 -15 -32 -52 -49 -82 -16 -30 -65 -116 -108 -190 -146 -253 -221 -385 -228
-400 -4 -8 -16 -28 -26 -45 -11 -16 -28 -46 -39 -65 -38 -68 -119 -210 -132
-230 -5 -8 -23 -40 -40 -70 -17 -30 -40 -71 -51 -90 -29 -49 -111 -189 -131
-225 -10 -16 -23 -42 -30 -57 -7 -16 -16 -28 -20 -28 -4 0 -8 -4 -8 -10 0 -5
-13 -31 -29 -58 -32 -55 -71 -123 -114 -202 -17 -30 -33 -57 -37 -60 -3 -3 -9
-13 -13 -22 -6 -17 23 -17 521 -12 604 6 539 5 577 4 17 0 83 1 148 2 73 2
117 -1 117 -7 0 -6 3 -6 8 0 4 6 52 10 117 10 128 -1 141 1 149 23 4 10 17 35
30 57 52 88 94 162 112 195 10 19 22 37 25 40 3 3 12 20 20 38 8 17 17 32 20
32 4 0 12 12 18 28 6 15 24 50 41 77 17 28 35 59 40 70 6 11 19 34 30 50 10
17 30 50 43 75 13 25 63 112 110 194 48 82 87 153 87 158 0 4 5 8 12 8 6 0 8
3 5 6 -4 4 2 19 12 33 14 21 123 209 243 419 10 17 26 47 37 65 33 57 253 441
271 472 10 17 40 68 66 115 27 47 54 94 61 105 7 11 15 27 19 35 4 8 17 31 29
50 12 19 34 58 50 85 38 68 92 163 117 205 11 19 31 55 45 80 14 25 51 90 83
145 33 55 67 116 77 135 9 19 19 37 22 40 9 8 28 41 48 80 9 19 34 62 55 96
21 34 38 66 38 72 0 6 4 12 9 14 5 2 20 26 35 53 14 28 39 73 55 100 16 28 42
73 57 100 14 28 35 62 45 77 11 14 19 29 19 32 0 4 20 40 45 80 25 41 45 79
45 85 0 6 5 11 10 11 6 0 10 4 10 9 0 6 41 80 90 165 50 86 90 161 90 166 0 6
4 10 9 10 5 0 13 9 16 20 4 12 33 66 66 121 32 54 59 102 59 106 0 3 6 14 14
22 7 9 27 41 43 71 46 85 184 324 195 338 6 6 7 12 2 12 -5 0 -4 4 1 8 10 6
102 163 179 302 16 30 33 57 38 58 4 2 8 8 8 14 0 6 19 43 43 82 23 39 48 82
55 96 7 14 23 43 36 65 13 22 30 51 38 65 87 155 422 737 429 744 5 6 9 13 9
17 0 6 -398 4 -1250 -5 -190 -2 -350 -5 -357 -5 -7 -1 -18 -12 -25 -26 -12
-24 -236 -404 -285 -484 -13 -20 -34 -56 -48 -81 -14 -25 -31 -54 -38 -64 -53
-84 -76 -126 -70 -126 4 0 3 -4 -3 -8 -9 -6 -198 -319 -263 -435 -19 -33 -30
-52 -52 -87 -9 -14 -47 -77 -84 -140 -37 -63 -74 -126 -83 -140 -9 -14 -17
-27 -17 -30 0 -3 -17 -31 -38 -63 -20 -31 -37 -60 -37 -63 0 -3 -15 -28 -33
-57 -18 -29 -36 -59 -41 -67 -4 -8 -12 -24 -19 -35 -69 -113 -195 -326 -207
-350 -32 -66 -41 -70 -158 -72 -59 0 -331 -4 -605 -7 l-499 -5 16 24 c9 14 24
37 33 52 10 14 18 32 19 39 1 8 12 25 23 40 12 15 21 33 21 40 0 8 4 14 8 14
5 0 14 16 22 35 8 19 17 35 21 35 4 0 9 8 12 18 3 9 26 53 52 97 25 44 51 91
58 105 6 14 15 27 18 30 4 3 17 26 30 52 34 66 109 198 131 231 11 15 16 27
11 27 -4 0 -3 4 3 8 6 4 25 34 43 67 18 33 51 90 72 127 21 36 39 71 39 77 0
6 4 11 9 11 5 0 13 9 16 21 4 11 27 54 51 95 24 41 44 77 44 79 0 3 10 22 23
43 13 20 37 62 54 92 33 60 99 176 113 200 24 40 120 212 120 216 0 3 35 63
77 131 7 13 12 24 11 25 -2 2 7 17 20 35 12 17 22 36 22 42 0 6 4 11 9 11 5 0
13 9 16 21 4 11 29 60 57 107 27 48 56 99 63 113 l14 26 -370 -1 c-203 -1
-369 -4 -369 -7 0 -3 -23 -3 -50 1 -28 4 -53 4 -55 0 -4 -7 -81 -4 -94 4 -4 3
-11 3 -15 -1z"/>
<path d="M11589 11958 c-11 -4 -22 -16 -26 -25 -4 -10 -9 -20 -13 -23 -7 -6
-117 -190 -139 -232 -7 -16 -17 -28 -22 -28 -5 0 -9 -4 -9 -9 0 -5 -30 -58
-67 -118 -60 -98 -101 -166 -128 -212 -5 -9 -25 -40 -42 -67 -18 -28 -33 -56
-33 -61 0 -6 -7 -13 -15 -17 -8 -3 -15 -10 -15 -16 0 -6 -22 -47 -50 -91 -27
-44 -50 -83 -50 -85 0 -3 -11 -20 -25 -38 -14 -18 -25 -38 -25 -44 0 -7 -4
-12 -9 -12 -5 0 -11 -8 -14 -17 -7 -22 -37 -72 -54 -91 -7 -7 -13 -18 -13 -23
0 -5 -5 -15 -10 -22 -25 -29 -61 -90 -56 -94 3 -3 60 -7 128 -8 68 -2 220 -6
338 -9 118 -4 305 -9 415 -12 110 -3 206 -6 213 -6 9 -1 9 -6 -1 -22 -8 -12
-103 -174 -212 -361 -109 -187 -224 -384 -257 -438 -32 -54 -58 -102 -58 -107
0 -6 -4 -10 -10 -10 -5 0 -10 -4 -10 -9 0 -11 -281 -495 -305 -526 -8 -10 -15
-24 -15 -29 0 -5 -11 -26 -23 -45 -27 -41 -121 -202 -162 -276 -15 -27 -33
-57 -39 -65 -6 -8 -16 -24 -22 -35 -51 -95 -180 -312 -189 -317 -5 -4 -6 -8
-2 -8 5 0 0 -12 -11 -27 -11 -16 -28 -44 -39 -63 -11 -19 -116 -199 -233 -400
-117 -201 -220 -376 -227 -390 -8 -14 -23 -38 -33 -55 -10 -16 -25 -41 -33
-55 -7 -14 -23 -41 -34 -61 -12 -20 -27 -47 -35 -60 -7 -13 -19 -32 -27 -41
-8 -10 -10 -18 -5 -18 5 0 4 -4 -2 -8 -10 -7 -74 -108 -74 -117 0 -3 -11 -23
-24 -44 -13 -21 -79 -132 -147 -247 -158 -270 -167 -286 -176 -304 -3 -8 -18
-33 -31 -55 -36 -57 -219 -370 -255 -435 -16 -30 -35 -62 -42 -70 -7 -8 -14
-19 -16 -25 -6 -16 -82 -149 -88 -155 -7 -6 -41 -66 -41 -72 0 -2 51 -5 113
-5 61 -1 245 -4 407 -7 162 -3 435 -8 605 -11 171 -3 350 -7 399 -8 l88 -2 82
140 c45 77 93 160 107 185 13 25 27 47 30 50 3 3 32 51 63 108 32 56 62 105
67 108 5 3 7 9 4 14 -3 4 2 13 10 20 8 7 15 19 15 26 0 8 5 14 10 14 6 0 10 4
10 10 0 5 23 49 52 97 28 49 72 124 98 168 26 44 57 97 69 118 28 49 33 58
209 362 83 143 158 269 167 280 8 10 15 25 15 32 0 7 5 13 10 13 6 0 10 5 10
11 0 6 19 44 43 83 24 39 46 78 50 86 4 8 18 33 32 55 14 22 28 47 32 55 4 8
22 38 40 67 18 29 33 54 33 57 0 3 16 30 35 60 19 30 35 59 35 64 0 5 7 15 15
22 8 7 15 21 15 31 0 11 3 19 8 19 4 0 16 17 27 38 10 20 24 44 31 52 6 8 24
40 40 70 16 30 32 57 35 60 3 3 29 48 59 100 29 52 55 97 59 100 3 3 14 21 24
40 9 19 31 58 47 85 16 28 34 59 40 70 6 11 19 34 30 50 11 17 28 46 38 65 10
19 33 59 50 88 18 29 32 57 32 62 0 6 4 10 9 10 5 0 11 8 14 18 6 18 38 73 48
82 3 3 11 20 18 38 8 17 17 32 22 32 4 0 11 9 14 20 4 11 40 77 81 146 41 69
74 130 74 135 0 5 5 9 10 9 6 0 10 4 10 10 0 5 17 38 38 72 21 35 41 70 45 78
4 8 15 29 26 45 10 17 59 100 108 185 111 191 264 453 291 500 46 78 107 186
111 195 2 6 7 12 10 15 3 3 17 25 30 50 13 25 30 52 38 61 7 9 10 19 6 22 -3
4 -2 7 4 7 6 0 13 8 17 18 3 9 17 35 31 57 14 22 35 58 47 80 12 22 27 48 33
57 5 9 33 57 61 105 28 48 83 144 124 213 40 68 81 138 90 155 26 45 180 308
190 325 39 63 210 363 210 368 0 9 -2676 9 -2701 0z"/>
<path d="M14516 11920 c-65 -99 -236 -381 -236 -389 0 -4 -8 -16 -17 -27 -10
-11 -27 -35 -37 -54 -11 -19 -31 -53 -45 -75 -14 -22 -31 -49 -37 -60 -6 -11
-73 -121 -149 -245 -76 -124 -161 -263 -189 -310 -27 -47 -53 -87 -56 -90 -3
-3 -11 -15 -18 -27 -12 -23 -12 -23 55 -24 38 -1 120 -3 183 -4 226 -7 528
-15 688 -19 90 -2 165 -6 168 -9 4 -4 -93 -174 -136 -237 -9 -14 -27 -46 -40
-72 -13 -27 -27 -48 -32 -48 -4 0 -8 -5 -8 -11 0 -6 -20 -45 -45 -86 -25 -40
-45 -78 -45 -83 0 -6 -3 -10 -8 -10 -4 0 -15 -17 -25 -37 -9 -21 -35 -67 -57
-102 -22 -34 -40 -65 -40 -67 0 -3 -62 -109 -90 -154 -5 -8 -28 -49 -52 -90
-23 -41 -64 -110 -90 -153 -26 -43 -48 -80 -48 -82 0 -6 -74 -129 -80 -135 -3
-3 -15 -23 -26 -45 -11 -22 -27 -52 -37 -67 -9 -16 -25 -40 -34 -55 -10 -16
-18 -30 -18 -33 0 -3 -8 -16 -17 -30 -9 -14 -22 -37 -29 -52 -7 -16 -15 -28
-19 -28 -3 0 -12 -16 -20 -35 -8 -19 -17 -35 -22 -35 -4 0 -8 -5 -8 -10 0 -6
-11 -27 -23 -48 -21 -32 -142 -240 -197 -338 -35 -61 -45 -78 -53 -88 -11 -16
-101 -169 -106 -181 -2 -5 -14 -26 -26 -45 -22 -35 -70 -118 -135 -233 -19
-34 -42 -73 -51 -87 -22 -33 -129 -219 -143 -247 -6 -13 -14 -23 -18 -23 -5 0
-8 -4 -8 -10 0 -5 -61 -114 -137 -242 -75 -128 -145 -249 -156 -268 -36 -65
-61 -105 -70 -111 -5 -3 -9 -10 -9 -15 0 -10 -22 -50 -110 -197 -32 -54 -58
-102 -58 -107 0 -6 -4 -10 -10 -10 -5 0 -10 -4 -10 -10 0 -5 -21 -44 -46 -87
-26 -43 -55 -94 -66 -113 -11 -19 -35 -60 -54 -91 -19 -31 -34 -62 -34 -68 0
-6 -4 -11 -9 -11 -5 0 -11 -8 -15 -17 -3 -10 -14 -32 -25 -49 -52 -85 -261
-446 -261 -451 0 -4 -7 -15 -17 -25 -9 -10 -12 -18 -7 -19 5 0 83 -2 174 -4
589 -12 910 -17 1158 -18 l284 -2 25 45 c14 25 48 83 76 130 27 47 64 110 80
140 17 30 33 57 36 60 3 3 11 14 17 25 26 49 259 451 264 455 3 3 13 21 24 40
40 74 70 126 87 152 11 14 19 31 19 36 0 6 6 17 13 24 12 13 28 40 64 108 10
19 21 37 24 40 3 3 23 36 45 75 21 38 44 77 49 87 6 9 24 40 41 70 17 29 57
98 89 153 32 55 66 114 76 132 17 30 49 83 76 128 24 41 149 256 165 288 10
17 22 39 28 47 5 8 66 112 135 230 69 118 129 222 135 230 5 8 15 26 21 40 5
13 13 27 17 30 6 4 18 25 66 115 6 11 14 22 17 25 3 3 9 12 13 20 4 8 12 24
19 35 7 11 36 63 66 115 30 52 61 103 69 113 8 9 11 17 6 17 -5 0 -4 4 1 8 6
4 16 18 24 32 8 14 50 85 93 159 43 73 78 135 78 137 0 2 15 27 33 57 43 70
43 70 137 232 44 77 85 147 90 155 29 47 130 223 130 226 0 3 16 29 35 59 19
30 31 55 27 55 -4 0 -2 4 4 8 13 9 84 129 84 143 0 5 5 9 10 9 6 0 10 4 10 8
0 8 250 445 267 467 4 6 15 24 23 40 8 17 27 49 43 71 15 23 27 44 27 47 0 4
27 51 60 105 33 55 60 105 60 111 0 6 5 11 10 11 6 0 10 7 10 15 0 8 5 15 12
15 6 0 8 3 5 7 -4 3 -1 13 7 22 8 9 27 40 42 69 46 83 56 101 117 204 32 54
57 100 57 104 -1 4 2 10 8 13 5 3 20 26 34 51 14 25 72 126 130 225 57 99 111
191 119 205 8 14 20 33 28 43 8 9 10 18 5 18 -5 1 -616 2 -1357 3 l-1348 1
-23 -35z"/>
</g>
</svg>
